# xmcd
#
# Track frame offsets:
#	180
#	16018
#	35235
#	47574
#	67525
#	79753
#	101688
#	113499
#	130089
#	147519
#	158692
#	172348
#	183677
#	195191
#	212289
#	224842
#	235015
#	247935
#	261133
#	272258
#
# Disc length: 3839
#
# Revision: 2
# Processed by: cddbd v1.5.1PL0 Copyright (c) Steve Scherf et al.
# Submitted via: Feurio! 1.63 - http://www.feurio.com
# Normalized: r1:DSETVAR2
#
DISCID=0c0efd14
DTITLE=Various Artist - Eddie Floyd and Clarence Carter
DYEAR=1900
DGENRE=Soul
TTITLE0=Eddie Floyd - Knock On Wood
TTITLE1=Eddie Floyd - California Girl
TTITLE2=Eddie Floyd - Bring It On Home To Me
TTITLE3=Eddie Floyd - Mr. Blue
TTITLE4=Eddie Floyd - Things Get Better
TTITLE5=Eddie Floyd - On A Saturday Night
TTITLE6=Eddie Floyd - Gotta Make A Comeback
TTITLE7=Eddie Floyd - I've Never Found A Girl (To Love Me Like You Do)
TTITLE8=Eddie Floyd - I Got A Reason To Smile
TTITLE9=Eddie Floyd - Raise Your Hand
TTITLE10=Clarence Carter - Patches
TTITLE11=Clarence Carter - Slip Away
TTITLE12=Clarence Carter - You Talk Too Much
TTITLE13=Clarence Carter - Brick House
TTITLE14=Clarence Carter - Starting All Over Again
TTITLE15=Clarence Carter - Too Weak To Fight
TTITLE16=Clarence Carter - Backstabbers
TTITLE17=Clarence Carter - Everybody  Plays The Fool
TTITLE18=Clarence Carter - Got A Thing About You Baby
TTITLE19=Clarence Carter - You Don't Have To Say You Love Me
EXTD=
EXTT0=
EXTT1=
EXTT2=
EXTT3=
EXTT4=
EXTT5=
EXTT6=
EXTT7=
EXTT8=
EXTT9=
EXTT10=
EXTT11=
EXTT12=
EXTT13=
EXTT14=
EXTT15=
EXTT16=
EXTT17=
EXTT18=
EXTT19=
PLAYORDER=
